<svg width="100" height="125" xmlns="http://www.w3.org/2000/svg">

 <g>
  <title>background</title>
  <rect fill="none" id="canvas_background" height="402" width="582" y="-1" x="-1"/>
 </g>
 <g>
  <title>Layer 1</title>
  <path stroke="null" id="svg_1" d="m13.532756,5.653687c-0.000297,-0.002551 -0.000448,-0.005126 -0.000448,-0.007722l0,-2.422362c0,-0.298135 1.980887,-0.298135 1.980887,0l0,0.342352l0.001157,0.000104c0.000136,0.973156 0.000292,1.893496 0.000292,1.893496c0,0 -0.000483,2.759481 -0.000483,3.593447c0,0.462621 0.495463,0.462621 0.495463,0c0,-1.02275 0.000483,-3.593447 0.000483,-3.593447c0,0 -0.000149,-0.887421 -0.000282,-1.836501c5.244846,0.733156 8.296182,5.364083 8.296182,11.232313c0,4.69609 4.050269,10.068483 0.371598,11.362025c-1.483762,0.521739 -3.961079,0.782609 -10.154371,0.782609c-6.193292,0 -8.670609,-0.26087 -10.159628,-0.782609c-3.632269,-1.272715 0.371598,-6.611092 0.371598,-11.362025c0,-5.870337 3.053528,-10.502486 8.301838,-11.233101c0.000134,0.952085 0.000285,1.837289 0.000285,1.837289c0,0 -0.000483,2.759481 -0.000483,3.593447c0,0.462621 0.495463,0.462621 0.495463,0c0,-0.852762 0.000337,-2.781678 0.000448,-3.399316l0,0zm5.448683,17.026354c0,-0.298137 -0.989961,-0.298137 -0.989961,0c0,1.156938 0.000966,1.150038 0.000966,1.150038c0,0 -0.000966,0.734872 -0.000966,1.272321c0,0.298137 0.989961,0.298137 0.989961,0c0,-0.65911 0.000966,-1.272321 0.000966,-1.272321c0,0 -0.000966,-0.546775 -0.000966,-1.150038zm-1.981853,-1.304348c0,-0.298137 -0.989961,-0.298137 -0.989961,0c0,0.635199 0.000966,1.932647 0.000966,1.932647c0,0 -0.000966,1.256611 -0.000966,1.79406c0,0.298137 0.989961,0.298137 0.989961,0c0,-0.65911 0.000966,-1.79406 0.000966,-1.79406c0,0 -0.000966,-1.329383 -0.000966,-1.932647zm-1.981853,-1.043478c0,-0.298137 -0.989961,-0.298137 -0.989961,0c0,0.635199 0.000966,2.454386 0.000966,2.454386c0,0 -0.000966,1.77835 -0.000966,2.315799c0,0.298137 0.989961,0.298137 0.989961,0c0,-0.65911 0.000966,-2.315799 0.000966,-2.315799c0,0 -0.000966,-1.851123 -0.000966,-2.454386zm-1.981853,1.043478c0,-0.298137 -0.989961,-0.298137 -0.989961,0c0,0.635199 0.000966,1.932647 0.000966,1.932647c0,0 -0.000966,1.256611 -0.000966,1.79406c0,0.298137 0.989961,0.298137 0.989961,0c0,-0.65911 0.000966,-1.79406 0.000966,-1.79406c0,0 -0.000966,-1.329383 -0.000966,-1.932647zm-1.981853,1.304348c0,-0.298137 -0.989961,-0.298137 -0.989961,0c0,0.635199 0.000966,1.150038 0.000966,1.150038c0,0 -0.000966,0.734872 -0.000966,1.272321c0,0.298137 0.989961,0.298137 0.989961,0c0,-0.65911 0.000966,-1.272321 0.000966,-1.272321c0,0 -0.000966,-0.546775 -0.000966,-1.150038zm7.705422,-7.504536c1.753413,0.190552 2.204812,-0.588566 2.204812,-1.740459c0,-1.151893 -0.307574,-2.031258 -2.725049,-1.824819c-2.417475,0.206442 -2.725049,0.675091 -2.725049,1.824819c0,1.151893 1.516849,1.55262 3.245285,1.740459zm-8.472424,0c1.728436,-0.187839 3.245285,-0.588566 3.245285,-1.740459c0,-1.149728 -0.307574,-1.618377 -2.725049,-1.824819c-2.417475,-0.206439 -2.725049,0.672926 -2.725049,1.824819c0,1.151893 0.451399,1.931011 2.204812,1.740459z" fill-rule="evenodd" fill="#000000"/>
 </g>
</svg>
