<svg width="100" height="125" xmlns="http://www.w3.org/2000/svg">

 <g>
  <title>background</title>
  <rect fill="none" id="canvas_background" height="402" width="582" y="-1" x="-1"/>
 </g>
 <g>
  <title>Layer 1</title>
  <g id="svg_1">
   <rect id="svg_2" height="99" width="185" x="-192"/>
   <rect id="svg_3" height="30" width="100" y="-36"/>
   <text id="svg_4" font-size="2.4" font-family="'Helvetica'" fill="#000000" transform="matrix(1,0,0,1,66,-19.5) ">http://thenounproject.com</text>
   <text id="svg_5" transform="matrix(1,0,0,1,7.166,-24.5) ">
    <tspan id="svg_6" font-size="6.1578" font-family="'Helvetica-Bold'" fill="#000000" y="0" x="0">The Noun Project</tspan>
    <tspan id="svg_7" font-size="4" font-family="'Helvetica-Bold'" fill="#000000" y="4.8" x="1.12">Icon Template</tspan>
   </text>
   <text id="svg_8" font-size="6.1578" font-family="'Helvetica-Bold'" fill="#000000" transform="matrix(1,0,0,1,-178.5,10.5) ">Reminders</text>
   <line id="svg_9" y2="-14.5" x2="18" y1="-14.5" x1="8" stroke-miterlimit="10" stroke="#FFFFFF" fill="#000000"/>
   <line id="svg_10" y2="16.5" x2="-162" y1="16.5" x1="-179" stroke-miterlimit="10" stroke="#FFFFFF" fill="#000000"/>
   <g id="svg_11">
    <g id="svg_12">
     <g id="svg_13">
      <rect id="svg_14" height="8.642" width="8.721" fill="#000000" y="31.318" x="-170.802"/>
      <path id="svg_15" d="m-164.455,42.312l4.747,0l0,-4.703l-4.747,0l0,4.703zm5.189,0.437l-5.63,0l0,-5.579l5.63,0l0,5.579l0,0zm-6.955,1.313l8.279,0l0,-8.203l-8.279,0l0,8.203l0,0zm8.721,0.438l-9.163,0l0,-9.079l9.163,0l0,9.079l0,0z" fill="#000000"/>
      <polygon id="svg_16" points="-166.149,44.133 -166.292,43.991 -158.013,35.787 -157.871,35.929     " fill="#000000"/>
     </g>
    </g>
   </g>
   <rect id="svg_17" height="32.5" width="35" fill="none" y="58" x="-179"/>
   <text id="svg_18" transform="matrix(1,0,0,1,-179,60.1572) ">
    <tspan id="svg_19" font-size="3" font-family="'Helvetica-Bold'" fill="#000000" y="0" x="0">Strokes</tspan>
    <tspan id="svg_20" font-size="2.4" font-family="'Helvetica'" fill="#000000" y="5" x="0">Try to keep strokes at 4px</tspan>
    <tspan id="svg_21" font-size="2.4" font-family="'Helvetica'" fill="#000000" y="10" x="0">Minimum stroke weight is 2px</tspan>
    <tspan id="svg_22" font-size="2.4" font-family="'Helvetica'" fill="#000000" y="14.5" x="0">For thicker strokes use even</tspan>
    <tspan id="svg_23" font-size="2.4" font-family="'Helvetica'" fill="#000000" y="17.5" x="0">numbers: 6px, 8px etc.</tspan>
    <tspan id="svg_24" font-size="2.4" font-family="'Helvetica-Bold'" fill="#000000" y="22" x="0">Remember to expand strokes</tspan>
    <tspan id="svg_25" font-size="2.4" font-family="'Helvetica-Bold'" fill="#000000" y="25" x="0">before saving as an SVG</tspan>
   </text>
   <rect id="svg_26" height="32.5" width="35" fill="none" y="58" x="-136.5"/>
   <text id="svg_27" transform="matrix(1,0,0,1,-136.5,60.1572) ">
    <tspan id="svg_28" font-size="3" font-family="'Helvetica-Bold'" fill="#000000" y="0" x="0">Size</tspan>
    <tspan id="svg_29" font-size="2.4" font-family="'Helvetica'" fill="#000000" y="5" x="0">Cannot be wider or taller than</tspan>
    <tspan id="svg_30" font-size="2.4" font-family="'Helvetica'" fill="#000000" y="8.5" x="0">100px (artboard size)</tspan>
    <tspan id="svg_31" font-size="2.4" font-family="'Helvetica'" fill="#000000" y="13.5" x="0">Scale your icon to fill as much of</tspan>
    <tspan id="svg_32" font-size="2.4" font-family="'Helvetica'" fill="#000000" y="16.5" x="0">the artboard as possible</tspan>
   </text>
   <rect id="svg_33" height="32.5" width="35" fill="none" y="58" x="-94"/>
   <text id="svg_34" transform="matrix(1,0,0,1,-94,60.1572) ">
    <tspan id="svg_35" font-size="3" font-family="'Helvetica-Bold'" fill="#000000" y="0" x="0">Ungroup</tspan>
    <tspan id="svg_36" font-size="2.4" font-family="'Helvetica'" fill="#000000" y="5" x="0">If your design has more than one</tspan>
    <tspan id="svg_37" font-size="2.4" font-family="'Helvetica'" fill="#000000" y="8" x="0">shape, make sure to ungroup</tspan>
   </text>
   <rect id="svg_38" height="32.5" width="35" fill="none" y="58" x="-50"/>
   <text id="svg_39" transform="matrix(1,0,0,1,-50,60.1572) ">
    <tspan id="svg_40" font-size="3" font-family="'Helvetica-Bold'" fill="#000000" y="0" x="0">Save as</tspan>
    <tspan id="svg_41" font-size="2.4" font-family="'Helvetica'" fill="#000000" y="5" x="0">Save as .SVG and make sure</tspan>
    <tspan id="svg_42" font-size="2.4" font-family="'Helvetica'" fill="#000000" y="8" x="0">“Use Artboards” is checked</tspan>
   </text>
   <text id="svg_43" font-size="2.5731" font-family="'Helvetica'" fill="#000000" transform="matrix(1.0074,0,0,1,-125.542,30.5933) ">100px</text>
   <text id="svg_44" font-size="5.1462" font-family="'Helvetica-Bold'" fill="#000000" transform="matrix(1.0074,0,0,1,-41,39) ">.SVG</text>
   <rect id="svg_45" height="10.185" width="10.261" fill="#000000" y="34.815" x="-126.514"/>
   <rect id="svg_46" height="2.337" width="0.522" fill="#000000" y="31.766" x="-126.477"/>
   <rect id="svg_47" height="2.337" width="0.523" fill="#000000" y="31.766" x="-116.812"/>
   <rect id="svg_48" height="0.572" width="11.233" fill="#000000" y="32.337" x="-127"/>
   <g id="svg_49">
    <rect id="svg_50" height="10.156" width="10.305" fill="#000000" y="33.844" x="-83.805"/>
    <rect id="svg_51" height="3.261" width="3.308" fill="#000000" y="28.707" x="-76.809"/>
   </g>
   <rect id="svg_52" height="30" width="30" stroke-miterlimit="10" stroke="#FFFFFF" fill="#000000" y="22.5" x="-178.5"/>
   <rect id="svg_53" height="30" width="30" stroke-miterlimit="10" stroke="#FFFFFF" fill="#000000" y="22.5" x="-136.5"/>
   <rect id="svg_54" height="30" width="30" stroke-miterlimit="10" stroke="#FFFFFF" fill="#000000" y="22.5" x="-93.5"/>
   <rect id="svg_55" height="30" width="30" stroke-miterlimit="10" stroke="#FFFFFF" fill="#000000" y="22.5" x="-49.5"/>
  </g>
  <g stroke="null" id="svg_56">
   <polygon stroke="null" id="svg_57" points="11.390294236755949,19.091212715669556 10.439000129699707,20.924973439141198 13.589999596930369,20.924973439141198 13.589999596930369,19.091212715669556 " fill="#000000"/>
   <rect stroke="null" id="svg_58" height="6.316287" width="1.7312" fill="#000000" y="11.959921" x="11.8588"/>
   <polygon stroke="null" id="svg_59" points="26.609702056885766,19.091212715669556 27.560995338441757,20.924973439141198 24.193596552468165,20.924973439141198 24.193596552468165,19.091212715669556 " fill="#000000"/>
   <rect stroke="null" id="svg_60" height="6.316287" width="1.947599" fill="#000000" y="11.959921" x="24.193597"/>
   <polygon stroke="null" id="svg_61" points="17.57327357686492,23.166236545606537 16.62197946980868,24.99999726907818 21.37780033639214,24.99999726907818 20.426939616967815,23.166236545606537 " fill="#000000"/>
   <rect stroke="null" id="svg_62" height="2.037512" width="1.947599" fill="#000000" y="20.721222" x="17.917998"/>
   <g stroke="null" id="svg_63">
    <path stroke="null" id="svg_64" d="m23.743917,8.878999c0.003895,0.074777 -0.003895,-0.074573 0,0l0,0z" fill="#000000"/>
    <path stroke="null" id="svg_65" d="m23.743917,8.878999c-0.095649,-1.874103 -1.470654,-3.531416 -3.383846,-4.068096c-1.917087,-0.537903 -4.033262,0.143237 -5.208097,1.664647c-0.58666,0.759992 -0.908014,1.687467 -0.908014,2.627372c1.991961,0.656283 4.141895,0.813579 6.233833,0.618792c1.100826,-0.102487 2.227837,-0.280158 3.278026,-0.618792c0.000216,-0.075592 -0.008007,-0.149146 -0.011902,-0.223923zm-5.314566,-1.221896c-0.315511,0 -0.570863,-0.24063 -0.570863,-0.537496s0.255352,-0.537292 0.570863,-0.537292c0.314862,0 0.570647,0.24063 0.570647,0.537292s-0.255785,0.537496 -0.570647,0.537496zm2.330195,0.908323c-0.576922,0 -1.046077,-0.441936 -1.046077,-0.985137c0,-0.543404 0.469155,-0.985137 1.046077,-0.985137c0.577139,0 1.04651,0.441936 1.04651,0.985137c0,0.543201 -0.469371,0.985137 -1.04651,0.985137z" fill="#000000"/>
   </g>
   <g stroke="null" id="svg_66">
    <path stroke="null" id="svg_67" d="m18.824065,10.247392c-1.629924,0 -3.286466,-0.228201 -4.584865,-0.673805l0,12.370142l3.245999,0l0,-1.197853l0,-0.432156l0.563505,0l1.902372,0l0.347322,0l0,0.432156l0,1.197853l3.462399,0l0,-12.369735c-0.6492,0.161778 -2.470854,0.673398 -4.936732,0.673398zm2.556332,2.957856c-0.8656,0.104117 -1.694412,0.182154 -2.637266,0.182154c-0.774063,0 -1.690733,-0.055013 -2.556332,-0.187451l0,-0.455791c1.947599,0.299107 3.678799,0.190915 5.193599,0l0,0.461089zm0,-1.119409c-0.8656,0.104117 -1.694412,0.182154 -2.637266,0.182154c-0.774063,0 -1.690733,-0.055013 -2.556332,-0.187451l0,-0.455791c1.947599,0.299107 3.678799,0.190915 5.193599,0l0,0.461089z" fill="#000000"/>
   </g>
  </g>
  <text id="svg_68" font-family="'Helvetica Neue', Helvetica, Arial-Unicode, Arial, Sans-serif" font-weight="bold" font-size="5px" fill="#000000" y="115" x="0">Created by William Hollowell</text>
  <text id="svg_69" font-family="'Helvetica Neue', Helvetica, Arial-Unicode, Arial, Sans-serif" font-weight="bold" font-size="5px" fill="#000000" y="120" x="0">from the Noun Project</text>
 </g>
</svg>