<svg width="32" height="40" xmlns="http://www.w3.org/2000/svg">
 <defs>
  <style>.cls-1{fill:#1d1d1b;}</style>
 </defs>
 <title>starwars_icons</title>
 <g>
  <title>background</title>
  <rect fill="none" id="canvas_background" height="402" width="582" y="-1" x="-1"/>
 </g>
 <g>
  <title>Layer 1</title>
  <path fill='#4CB260' id="svg_1" d="m17,16.5l-2,0a0.5,0.5 0 0 0 0,1l2,0a0.5,0.5 0 0 0 0,-1z" class="cls-1"/>
  <path fill='#4CB260' id="svg_2" d="m30.5,20a1,1 0 0 0 -0.73,0.33l-6.28,-1.73a2.23,2.23 0 0 0 -0.65,-1.45a2.25,2.25 0 0 0 -2.43,-0.5l-0.55,-1.65a2.23,2.23 0 0 0 3.62,-1.6l6.32,-1.7a1,1 0 1 0 -0.24,-1l-6.22,1.68a2.24,2.24 0 0 0 -4.27,0.32a0.48,0.48 0 0 0 -0.4,-0.24l-5.34,0a0.48,0.48 0 0 0 -0.4,0.24a2.24,2.24 0 0 0 -4.28,-0.3l-6.21,-1.7a1,1 0 0 0 -0.94,-0.7a1,1 0 1 0 0.7,1.71l6.32,1.73a2.23,2.23 0 0 0 3.62,1.56l-0.55,1.65a2.25,2.25 0 0 0 -2.43,0.5a2.23,2.23 0 0 0 -0.64,1.42l-6.3,1.73a1,1 0 1 0 0.22,1l6.22,-1.71a2.24,2.24 0 0 0 4.13,0.11l0.1,0.2a0.5,0.5 0 0 0 0.45,0.28l5.33,0a0.5,0.5 0 0 0 0.45,-0.28l0.1,-0.2a2.25,2.25 0 0 0 4.12,-0.09l6.23,1.72a1,1 0 0 0 0.94,0.68a1,1 0 0 0 0,-2l-0.01,-0.01zm0.5,-9zm-9.74,1a1.25,1.25 0 1 1 -1.26,1.25a1.25,1.25 0 0 1 1.25,-1.25l0.01,0zm-4.06,1.5l-0.5,1l-1.39,0l-0.5,-1l2.39,0zm-6.44,1a1.25,1.25 0 1 1 1.24,-1.25a1.25,1.25 0 0 1 -1.25,1.25l0.01,0zm0.88,5.13a1.25,1.25 0 1 1 0.37,-0.88a1.25,1.25 0 0 1 -0.38,0.88l0.01,0zm6.72,-0.47l-4.72,0l-1.1,-2.16l1.15,-3.46l0.86,1.72a0.5,0.5 0 0 0 0.45,0.28l2,0a0.5,0.5 0 0 0 0.45,-0.28l0.86,-1.72l1.15,3.46l-1.1,2.16zm3.78,0.47a1.25,1.25 0 1 1 0.37,-0.88a1.25,1.25 0 0 1 -0.38,0.88l0.01,0zm8.63,1.37l0,0z" class="cls-1"/>
  <path fill='#4CB260' id="svg_3" d="m10.75,12.37a0.88,0.88 0 1 0 0.88,0.88a0.88,0.88 0 0 0 -0.88,-0.88z" class="cls-1"/>
  <path fill='#4CB260' id="svg_4" d="m10.75,17.87a0.88,0.88 0 1 0 0.88,0.88a0.88,0.88 0 0 0 -0.88,-0.88z" class="cls-1"/>
  <path fill='#4CB260' id="svg_5" d="m21.25,17.87a0.88,0.88 0 1 0 0.88,0.88a0.88,0.88 0 0 0 -0.88,-0.88z" class="cls-1"/>
  <path fill='#4CB260' id="svg_6" d="m21.25,14.13a0.88,0.88 0 1 0 -0.88,-0.88a0.88,0.88 0 0 0 0.88,0.88z" class="cls-1"/>
  <text id="svg_7" font-family="'Helvetica Neue', Helvetica, Arial-Unicode, Arial, Sans-serif" font-weight="bold" font-size="5px" fill="#000000" y="47" x="0">Created by Henning Gross</text>
  <text id="svg_8" font-family="'Helvetica Neue', Helvetica, Arial-Unicode, Arial, Sans-serif" font-weight="bold" font-size="5px" fill="#000000" y="52" x="0">from the Noun Project</text>
 </g>
</svg>
